<svg xmlns="http://www.w3.org/2000/svg" height="2048" preserveAspectRatio="xMidYMid meet" style="display: block;" version="1.1" viewBox="0 0 2048 2048" width="2048">
<path d="M 0 0 L 2048 0 L 2048 2048 L 0 2048 L 0 0 z" fill="rgb(11,11,14)" transform="translate(0,0)"></path>
<path d="M 1104.53 694.895 C 1111.98 693.611 1171.2 693.319 1179.32 694.341 L 1179.69 695.16 L 1176.85 696.272 C 1119.8 719.731 1082.97 783.2 1071.23 841.444 C 1068.53 854.795 1065.19 868.204 1062.14 881.499 L 1031.85 1015.03 L 1001.54 1147.8 C 989.916 1199.2 972.012 1251.33 998.976 1301.03 C 1038.39 1256.38 1048.65 1181.05 1061.46 1123.4 L 1106.28 923.602 C 1121.77 854.506 1126.07 811.893 1178.93 758.855 C 1195.54 742.202 1214.78 728.397 1235.87 717.994 C 1294.19 689.186 1345.48 695.069 1408.84 695.056 L 1545.38 694.954 C 1564.91 694.376 1585.9 695.075 1605.69 694.859 C 1602.94 712.554 1593.87 747.172 1583.56 761.589 C 1570.43 787.033 1543.52 808.168 1516.38 816.848 C 1493.43 824.19 1476.61 823.516 1453.16 823.53 L 1385.42 823.582 C 1370.65 823.611 1350.76 823.032 1336.78 824.791 C 1299.63 829.462 1266.74 850.582 1249.5 884.242 C 1239.71 903.338 1236.84 922.921 1231.77 943.455 C 1225.45 969.057 1220.66 995.457 1214.69 1021.01 C 1236.45 986.901 1279.12 954.169 1320.74 953.806 C 1344.9 953.595 1373.8 952.86 1397.92 953.951 C 1419.57 953.378 1441.2 954.202 1463.07 953.61 C 1457.52 972.721 1449.12 1003.2 1436.76 1018.97 C 1411.81 1055.08 1383.3 1072.85 1339.56 1081.6 C 1323.86 1084.74 1308.66 1083.79 1292.67 1085.13 C 1256.01 1088.23 1221.58 1105.67 1199.82 1135.95 C 1179.89 1163.67 1178.09 1197.05 1168.73 1229.96 C 1152.89 1285.64 1110.07 1328.57 1054.12 1343.97 C 1053.94 1343.99 1053.75 1344.01 1053.57 1344.04 C 1022.52 1353.71 997.246 1350.64 965.079 1350.81 C 953.014 1350.88 932.302 1350.83 920.704 1349.35 C 867.418 1344.48 836.36 1302.98 842.903 1250.76 C 845.311 1231.54 850.054 1213.1 854.337 1194.24 C 862.104 1161.02 869.582 1127.73 876.768 1094.37 C 850.092 1095.04 823.481 1094.33 796.855 1094.53 C 779.279 1094.67 756.117 1093.53 739.503 1097.78 C 723.553 1101.78 709.037 1110.15 697.595 1121.96 C 670.05 1150.8 671.656 1188.76 659.912 1225.36 C 635.101 1302.68 563.029 1350.54 483.143 1352.64 C 462.433 1353.19 440.729 1352.49 420.141 1353.3 C 416.978 1353.27 415.326 1353.06 412.262 1352.66 L 412.533 1351.92 L 416.892 1350.36 C 453.426 1336.66 482.118 1316.46 500.774 1281.27 C 510.836 1262.28 513.442 1243.35 518.36 1222.72 C 536.825 1145.25 538.226 1088.51 598.145 1028.29 C 638.732 988.148 692.187 963.626 749.086 959.044 C 768.188 957.364 793.876 958.041 813.594 958.051 L 906.87 958.045 L 923.558 880.236 C 935.579 824.071 940.392 788.154 984.348 745.124 C 1014.27 715.83 1062.36 694.026 1104.53 694.895 z" fill="rgb(255,92,43)" transform="translate(0,0)"></path>
<path d="M 920.704 1349.35 C 955.331 1343.79 977.3 1329.67 999.023 1301.38 C 1013.11 1323.69 1027.91 1336.97 1053.57 1344.04 C 1022.52 1353.71 997.246 1350.64 965.079 1350.81 C 953.014 1350.88 932.302 1350.83 920.704 1349.35 z" fill="rgb(124,92,255)" transform="translate(0,0)"></path>
<path d="M 1545.38 694.954 C 1564.91 694.376 1585.9 695.075 1605.69 694.859 C 1602.94 712.554 1593.87 747.172 1583.56 761.589 C 1583.96 749.22 1587.6 742.643 1581.58 728.622 C 1573.32 709.408 1562.79 702.948 1545.38 694.954 z" fill="rgb(124,92,255)" transform="translate(0,0)"></path>
<path d="M 1397.92 953.951 C 1419.57 953.378 1441.2 954.202 1463.07 953.61 C 1457.52 972.721 1449.12 1003.2 1436.76 1018.97 C 1438.4 1010 1440.83 1004.24 1439.09 994.999 C 1434.53 970.788 1419.64 960.168 1397.92 953.951 z" fill="rgb(124,92,255)" transform="translate(0,0)"></path>
<path d="M 555.396 699.61 C 555.522 699.63 546.223 697.425 548.742 697.579 C 572.724 699.039 613.603 693.64 636.127 697.902 C 645.45 698.486 654.678 700.113 663.638 702.752 C 694.919 712.003 721.339 733.126 737.248 761.604 C 759.158 801.588 751.025 833.323 741.648 874.226 C 737.262 893.116 732.998 912.035 728.856 930.981 C 686.592 935.624 647.03 952.492 611.283 975.468 C 596.699 984.842 585.137 996.269 572.231 1007.63 L 605.178 861.075 C 611.819 830.608 623.531 795.658 617.661 765.119 C 606.319 731.566 590.229 710.806 555.396 699.61 z" fill="rgb(255,92,43)" transform="translate(0,0)"></path>
<path d="M 555.396 699.61 C 555.522 699.63 546.223 697.425 548.742 697.579 C 572.724 699.039 613.603 693.64 636.127 697.902 C 645.45 698.486 654.678 700.113 663.638 702.752 C 633.869 715.495 620.989 733.066 617.661 765.119 C 606.319 731.566 590.229 710.806 555.396 699.61 z" fill="rgb(124,92,255)" transform="translate(0,0)"></path>
<path d="M 555.396 699.61 C 555.522 699.63 546.223 697.425 548.742 697.579 C 572.724 699.039 613.603 693.64 636.127 697.902 C 625.673 698.435 569.874 697.262 555.647 698.747 C 555.564 699.035 555.48 699.323 555.396 699.61 z" fill="rgb(82,28,149)" transform="translate(0,0)"></path>
<metadata><recraft-signature>{"signed_by": "recraft", "signature_b64": "rQ7zvkmNgqIJ7dcuV7o55ZGMRSoiPPcrQxtmSFGac0nXPhgdJKuM5n/ejrTHHSDmlIXopkASOvcsuUWsENNQDw==", "signing_algo": "Ed25519", "generation_timestamp": 1782865440, "identifier": "1adf4b0f-cd8c-4035-ba12-caee4d45c80a"}</recraft-signature></metadata></svg>